<svg xmlns="http://www.w3.org/2000/svg" viewBox="0 0 64 64">
  <defs>
    <clipPath id="discClip">
      <circle cx="35" cy="31" r="25" />
    </clipPath>
    <radialGradient id="baseGlow" cx="44%" cy="48%" r="63%">
      <stop offset="0%" stop-color="#ec4899" />
      <stop offset="35%" stop-color="#d946ef" />
      <stop offset="62%" stop-color="#22d3ee" />
      <stop offset="100%" stop-color="#7c3aed" />
    </radialGradient>
    <filter id="soften">
      <feGaussianBlur stdDeviation="0.28" />
    </filter>
  </defs>

  <g clip-path="url(#discClip)">
    <circle cx="35" cy="31" r="25" fill="url(#baseGlow)" />
    <g filter="url(#soften)" opacity="0.92">
      <path d="M8 31 C18 17 31 12 56 15" fill="none" stroke="#06b6d4" stroke-width="7" />
      <path d="M10 47 C25 35 39 40 61 28" fill="none" stroke="#22d3ee" stroke-width="6" />
      <path d="M16 6 C28 23 36 39 53 58" fill="none" stroke="#06b6d4" stroke-width="5" />
      <path d="M2 20 C23 31 36 28 67 44" fill="none" stroke="#f472b6" stroke-width="7" />
      <path d="M20 59 C23 40 32 24 46 4" fill="none" stroke="#ec4899" stroke-width="6" />
      <path d="M4 9 C24 25 34 45 63 54" fill="none" stroke="#a855f7" stroke-width="4" />
      <path d="M13 56 C20 34 43 27 63 10" fill="none" stroke="#d946ef" stroke-width="4" />
    </g>
    <circle cx="35" cy="31" r="25" fill="none" stroke="#0ea5e9" stroke-opacity="0.35" stroke-width="1" />
  </g>

  <path d="M18.5 49.5 A11 11 0 1 1 21.5 35.8" fill="none" stroke="#f43f5e" stroke-width="2.7" stroke-linecap="round" />
  <path d="M18.5 49.5 L18.6 43.5 L23.8 46.3" fill="none" stroke="#f43f5e" stroke-width="2.7" stroke-linecap="round" stroke-linejoin="round" />
</svg>